<svg xmlns="http://www.w3.org/2000/svg" viewBox="0 0 738.15 334.45">
    <defs>
        <style>
            .a2ffb2fa-af69-4385-9a86-97c1cdba308f{fill:#044769;}.a7b559e0-a638-4582-801f-033bcbe6f1f3{fill:#11b0a4;}
        </style>
    </defs>
    <title>drama pt toti2</title>
    <g id="a0abd65a-ae61-486e-a515-bad37f558494" data-name="Layer 2">
        <polygon class="a2ffb2fa-af69-4385-9a86-97c1cdba308f"
                 points="648.34 304.37 648.34 317.2 661.17 317.2 666.92 304.37 648.34 304.37"/>
        <polygon class="a2ffb2fa-af69-4385-9a86-97c1cdba308f"
                 points="691.7 200.75 691.7 215.89 703.2 215.89 708.95 278.49 698.33 278.49 700.32 294.19 738.15 292.42 738.15 276.5 725.32 276.5 723.55 213.68 731.96 213.68 733.73 200.75 691.7 200.75"/>
        <path class="a2ffb2fa-af69-4385-9a86-97c1cdba308f"
              d="M1020.61-176.37l3,167a143.07,143.07,0,0,0,30,0c10.14-1.07,23.86-2.51,39-10,7.65-3.78,24.84-12.28,36-32,10.77-19,9.64-37.44,9-46a85,85,0,0,0-17-46c-3.72-4.86-15.61-20-36-27-8.47-2.9-19.32-3.6-41-5C1034-176,1026.09-176.24,1020.61-176.37Z"
              transform="translate(-1020.61 209.33)"/>
        <path class="a2ffb2fa-af69-4385-9a86-97c1cdba308f"
              d="M1160.61-186.37l9,169h32q-.51-31.5-1-63l11-1q22,32,44,64l36-3-51-66a58.33,58.33,0,0,0,23-12,58.56,58.56,0,0,0,18-28c1.48-5,6.9-23.56-2-39-9-15.6-27.53-19.21-47-23C1217.71-191.27,1192.47-194,1160.61-186.37Z"
              transform="translate(-1020.61 209.33)"/>
        <path class="a7b559e0-a638-4582-801f-033bcbe6f1f3"
              d="M1397.72-153.2,1346-130.1l18.66-58.27,16-9Q1389.18-175.27,1397.72-153.2Z"
              transform="translate(-1020.61 209.33)"/>
        <path class="a2ffb2fa-af69-4385-9a86-97c1cdba308f"
              d="M1442.61-37.37q-2,5.5-4,11l-25-24-29,27-30-26-33,26-6-12q15.17-47.37,30.34-94.73l51.77-23.1Q1420.18-95.29,1442.61-37.37Z"
              transform="translate(-1020.61 209.33)"/>
        <path class="a2ffb2fa-af69-4385-9a86-97c1cdba308f"
              d="M1463.61-198.37q2.49,85.5,5,171h39q-2-52-4-104,14.49,23.5,29,47l24-52,6,107,40-2q-3.51-86-7-172c-13.67.67-23.35,2-37,2.66-7.33,15.34-22.65,42.37-30,57.71-7.75-15.9-21.55-40.85-31-56.37Z"
              transform="translate(-1020.61 209.33)"/>
        <polygon class="a2ffb2fa-af69-4385-9a86-97c1cdba308f"
                 points="647.01 0 609.85 175.19 644.36 173.42 656.75 116.35 682.85 113.7 699.66 169.44 733.73 165.01 688.6 29.64 647.01 0"/>
        <path class="a2ffb2fa-af69-4385-9a86-97c1cdba308f"
              d="M1024.82,30.45l3.1,94.67,21.68-.89V84.42a52.86,52.86,0,0,0,19.9-2.21c6.16-1.93,12.94-4,18.14-10.62,1.2-1.52,7.36-9.3,5.75-19.91-1.5-10-9-16.66-15.48-19.46-5.38-2.33-10.1-2-14.16-1.77A383.16,383.16,0,0,1,1024.82,30.45Z"
              transform="translate(-1020.61 209.33)"/>
        <path class="a2ffb2fa-af69-4385-9a86-97c1cdba308f"
              d="M1104,27.35q2.88,45.78,5.75,91.58l57.51-2.66.45-19.91-39.38,2.21q-.21-6.85-.44-13.71l15.93-.44V64.51l-16.37,1.33V48.14l28.75-.88q-.43-10.84-.88-21.68Z"
              transform="translate(-1020.61 209.33)"/>
        <path class="a2ffb2fa-af69-4385-9a86-97c1cdba308f"
              d="M1176.12,26.91l3.54,88.92,21.24.44-3.1-50.43,31.41,47.33,17.69-.44L1243.37,22l-19,.44,3.1,60.17-35-57.51Z"
              transform="translate(-1020.61 209.33)"/>
        <path class="a2ffb2fa-af69-4385-9a86-97c1cdba308f"
              d="M1251.77,17.17V34l18.14.44,2.21,76.53h19.47l-2.22-78.3,15.49-.44V14.52Z"
              transform="translate(-1020.61 209.33)"/>
        <path class="a2ffb2fa-af69-4385-9a86-97c1cdba308f"
              d="M1316.8,12.31q2,46.89,4,93.79H1338q-.66-17.92-1.33-35.84h7.08l23.45,33.18,20.35-.44-29.2-37.16a31.19,31.19,0,0,0,12.39-5.75A29,29,0,0,0,1381,45.93a27.43,27.43,0,0,0-1.33-20.35A26.61,26.61,0,0,0,1361,11.42c-.73-.13-3.59-.09-9.29,0-10.69.17-18.79.4-20.35.45C1327.65,12,1322.68,12.12,1316.8,12.31Z"
              transform="translate(-1020.61 209.33)"/>
        <path class="a2ffb2fa-af69-4385-9a86-97c1cdba308f"
              d="M1394.22,7.44c-.17,11.25.11,20.74.44,27.87,1.24,26.09,3.95,34.61,5.76,39.38,3,8,6.07,15.7,14.15,20.79a30.8,30.8,0,0,0,18.14,4.42c13.61-.77,21.76-10,23-11.5,6.43-7.56,7.07-16.4,7.52-26.1a483.06,483.06,0,0,0-.89-58l-19.46.45c1,11.09,2,19.94,2.65,25.66,1.07,9.22,2.2,18,1.33,29.64-.53,7.06-1.6,12.58-5.75,16.81-1.15,1.16-4.06,4-8.41,4.42-6.46.56-11.2-4.84-12.39-6.19-4-4.53-4.84-9.62-5.75-17.26-1.39-11.71-1.9-20.79-2.21-29.64-.17-4.87-.45-12.2-.88-21.23Z"
              transform="translate(-1020.61 209.33)"/>
        <path class="a2ffb2fa-af69-4385-9a86-97c1cdba308f"
              d="M1505.71.81l.44,15.92,19,.44q.66,38.94,1.33,77.87l19.91-.45-2.22-78.3,15.49-.44.44-17.26Z"
              transform="translate(-1020.61 209.33)"/>
        <path class="a2ffb2fa-af69-4385-9a86-97c1cdba308f"
              d="M1606.57-4.5c-10.83-.43-18.44,6.14-20.79,8.4-4.25,4.1-6.07,8.32-8,12.83-5.81,13.87-5,26.5-4.43,34.51.73,9.92,1.19,16.17,5.31,23.45,2,3.51,7.06,12.47,18.14,16.36a32.18,32.18,0,0,0,23-.88c10.62-4.64,15.06-13.67,16.81-17.25,3.71-7.54,3.82-13.93,4-23.45.16-9.1.33-19.15-4.87-30.53-2.36-5.16-6.34-13.56-15.48-19A28.14,28.14,0,0,0,1606.57-4.5Z"
              transform="translate(-1020.61 209.33)"/>
        <path class="a2ffb2fa-af69-4385-9a86-97c1cdba308f"
              d="M1646.64-6.37l.44,15.93,19,.44q.66,38.94,1.33,77.86l19.91-.44-2.22-78.3,15.49-.45.44-17.25Z"
              transform="translate(-1020.61 209.33)"/>
    </g>
</svg>
