<svg id="f4ad3e5a-dd07-4f81-96dd-ba917b0793c2" data-name="Layer 1" xmlns="http://www.w3.org/2000/svg" viewBox="0 0 472.81 440.96">
  <defs>
    <style>
      .a840ec91-0a8f-48f2-b1cd-d42eb6d20f05, .b2155958-2d80-4bd4-a421-12a1fa163467 {
        fill: none;
      }

      .b2155958-2d80-4bd4-a421-12a1fa163467 {
        stroke: #050606;
        stroke-miterlimit: 10;
        stroke-width: 2.17px;
      }

      .a99b71e2-ea65-4fec-87c2-561d0ed60431 {
        fill: #1c2254;
      }

      .abb76fcb-0b03-4596-a440-7441d6cf3998 {
        fill: #96c93d;
      }

      .b4945d76-144c-4aef-9589-0d9b97448e7e {
        fill: #dfc223;
      }

      .e3a99cec-c765-4871-9a83-59a32c9a3765 {
        fill: #1498d5;
      }
    </style>
  </defs>
  <title>frilensar ceva logo</title>
  <g>
    <path class="b2155958-2d80-4bd4-a421-12a1fa163467" d="M1521.13,359.3s-43.21,20.2-88.27,0-38-133.84-38-133.84l7.17-47,35.84-19.36,4.66,25.09,2.15-2.15V162.38l8.24-12.55,5.38,7.17,3.94-11.11,15.66-4.66v42.12l18.39,21v15.77l1.44,64.63v22.52" transform="translate(-1325.88 -84.01)"/>
    <polyline class="b2155958-2d80-4bd4-a421-12a1fa163467" points="152 57.23 161.79 62.24 161.79 66.19 180.79 74.79 189.42 89.48 214.84 96.65 221.29 86.26 230.25 89.48 231.68 110.99 238.49 121.38 238.49 135.72"/>
  </g>
  <g>
    <path class="a99b71e2-ea65-4fec-87c2-561d0ed60431" d="M1577.71,333.33a49.34,49.34,0,0,1-25.21-6.57,46.88,46.88,0,0,1-17.7-17.9,50.11,50.11,0,0,1-6.37-25v-.27a50.45,50.45,0,0,1,6.3-24.94,47,47,0,0,1,17.83-18,50.68,50.68,0,0,1,26-6.7q12.75,0,21.66,3.82a52.5,52.5,0,0,1,16.23,11L1603,264.2a48.86,48.86,0,0,0-11.8-8.05,30,30,0,0,0-12.81-2.74,25.9,25.9,0,0,0-20,8.68,30.27,30.27,0,0,0-7.94,21.22v.27a31,31,0,0,0,7.88,21.42,25.65,25.65,0,0,0,20,8.82,29.88,29.88,0,0,0,13.28-2.75,53.34,53.34,0,0,0,12-8.51l13.48,13.61A56,56,0,0,1,1600,329q-9.16,4.29-22.3,4.29" transform="translate(-1325.88 -84.01)"/>
    <polygon class="abb76fcb-0b03-4596-a440-7441d6cf3998" points="306.63 247.22 306.63 151.07 379.12 151.07 379.12 169.91 327.62 169.91 327.62 189.43 372.95 189.43 372.95 208.2 327.62 208.2 327.62 228.38 379.86 228.38 379.86 247.22 306.63 247.22"/>
    <polygon class="b4945d76-144c-4aef-9589-0d9b97448e7e" points="238.31 357.51 199.43 260.69 222.76 260.69 247.9 328.41 273.05 260.69 295.85 260.69 256.96 357.51 238.31 357.51"/>
    <path class="e3a99cec-c765-4871-9a83-59a32c9a3765" d="M1619.13,440.85,1660.37,344h19.44l41.24,96.82h-22.13l-8.78-21.59H1649.5l-8.78,21.59ZM1657,400.62h25.55l-12.74-31.18Z" transform="translate(-1325.88 -84.01)"/>
  </g>
  <rect class="a840ec91-0a8f-48f2-b1cd-d42eb6d20f05" width="472.81" height="440.96"/>
</svg>
